<svg width="97" height="97" viewBox="0 0 97 97" fill="none" xmlns="http://www.w3.org/2000/svg">
<circle cx="48.5" cy="48.5" r="48" fill="url(#paint0_linear)" stroke="white"/>
<path d="M38.3819 28.5935V77.7023C38.3819 81.834 35.0325 85.1833 30.9008 85.1833C26.7692 85.1833 23.4198 81.834 23.4198 77.7023V28.5935C23.4198 24.4619 26.7692 21.1125 30.9008 21.1125C35.0325 21.1125 38.3819 24.4619 38.3819 28.5935Z" fill="#FFFCFC" stroke="white"/>
<path d="M72.3523 27.9796V78.3162C72.3523 82.1088 69.2778 85.1833 65.4852 85.1833C61.6926 85.1833 58.6181 82.1088 58.6181 78.3162V27.9796C58.6181 24.187 61.6926 21.1125 65.4852 21.1125C69.2778 21.1125 72.3523 24.187 72.3523 27.9796Z" fill="#FFFEFE" stroke="white"/>
<path d="M55.5717 44.3509V78.1116C55.5717 82.0172 52.4056 85.1833 48.5 85.1833C44.5944 85.1833 41.4283 82.0172 41.4283 78.1116V44.3509C41.4283 40.4453 44.5944 37.2792 48.5 37.2792C52.4056 37.2792 55.5717 40.4453 55.5717 44.3509Z" fill="url(#paint1_linear)" stroke="white"/>
<defs>
<linearGradient id="paint0_linear" x1="48.5" y1="0" x2="48.5" y2="97" gradientUnits="userSpaceOnUse">
<stop stop-color="#ABB5B3" stop-opacity="0"/>
<stop offset="0.927083" stop-color="#178E79"/>
</linearGradient>
<linearGradient id="paint1_linear" x1="48.5" y1="36.7792" x2="48.5" y2="85.6833" gradientUnits="userSpaceOnUse">
<stop stop-color="#52CFD7"/>
<stop offset="0.432292" stop-color="#52CFD7" stop-opacity="0.619792"/>
<stop offset="1" stop-color="#52CFD7" stop-opacity="0"/>
</linearGradient>
</defs>
</svg>
